<svg width="24" height="24" viewBox="0 0 24 24" fill="none" xmlns="http://www.w3.org/2000/svg">
<path d="M12 3C7.03 3 3 7.03 3 12C3 16.97 7.03 21 12 21C16.97 21 21 16.97 21 12C21 11.54 20.96 11.08 20.9 10.64C20.34 11.5 19.26 12 18 12C15.79 12 14 10.21 14 8C14 6.74 14.5 5.66 15.36 5.1C14.92 5.04 14.46 5 14 5H12C7.03 5 3 7.03 3 12C3 16.97 7.03 21 12 21C16.97 21 21 16.97 21 12C21 11.54 20.96 11.08 20.9 10.64C19.62 12.04 17.69 13 15.5 13C12.46 13 10 10.54 10 7.5C10 5.31 10.96 3.38 12.36 2.1C12.24 2.07 12.12 2.04 12 2C11.04 2 10.12 2.15 9.24 2.42C6.54 3.27 4.5 5.63 4.08 8.44C3.96 9.27 3.9 10.12 3.9 11C3.9 16.47 8.43 21 13.9 21C15.78 21 17.54 20.44 19.02 19.47C20.03 18.78 20.89 17.88 21.53 16.83C21.84 16.33 22.08 15.78 22.25 15.2C22.41 14.63 22.5 14.03 22.5 13.41V12C22.5 7.03 18.47 3 13.5 3H12Z" fill="currentColor"/>
</svg>
